<?xml version="1.0" standalone="no"?><!DOCTYPE svg PUBLIC "-//W3C//DTD SVG 1.1//EN"
        "http://www.w3.org/Graphics/SVG/1.1/DTD/svg11.dtd">
<svg t="1599806986211" class="icon" viewBox="0 0 1024 1024" version="1.1" xmlns="http://www.w3.org/2000/svg"
     p-id="10064" xmlns:xlink="http://www.w3.org/1999/xlink" width="200" height="200">
    <defs>
        <style type="text/css"></style>
    </defs>
    <path d="M469.060654 788.156035a48.781721 48.781721 0 0 0 48.781721-48.781721V511.906953l191.814547-103.585877a48.781721 48.781721 0 0 0-46.372748-85.819695L470.325365 426.990623 275.800723 322.621829a48.781721 48.781721 0 0 0-46.071626 85.940144l190.549835 102.260942v228.611623c0 26.920283 21.861438 48.781721 48.781722 48.781722z m502.632403 13.490254a11.201729 11.201729 0 0 1 9.27455 10.900607v56.851784a11.201729 11.201729 0 0 1-9.635896 11.442626l-29.269033 5.058845a11.141504 11.141504 0 0 0-8.130286 6.9258c-1.084038 2.77032-2.228301 5.420191-3.432788 8.130287a11.021056 11.021056 0 0 0 1.084038 10.840382l17.103715 24.390861a11.201729 11.201729 0 0 1-1.204487 14.453844l-40.049191 39.988966a11.201729 11.201729 0 0 1-14.393619 1.204487l-24.390861-17.103714a11.201729 11.201729 0 0 0-10.840383-1.084039 107.199338 107.199338 0 0 1-8.130287 3.432788 11.141504 11.141504 0 0 0-6.925799 8.130287l-5.11907 29.329257a11.201729 11.201729 0 0 1-11.08128 9.27455h-56.851784a11.201729 11.201729 0 0 1-11.382402-9.635896l-5.119069-29.269033a11.141504 11.141504 0 0 0-6.9258-8.130287 182.539997 182.539997 0 0 1-8.130287-3.432787 10.840383 10.840383 0 0 0-10.840383 1.084038l-24.39086 17.103715a11.201729 11.201729 0 0 1-14.393619-1.204487l-40.049191-40.049191a11.201729 11.201729 0 0 1-1.204487-14.39362l17.103714-24.39086a11.021056 11.021056 0 0 0 1.084039-10.840383 107.199338 107.199338 0 0 1-3.432788-8.130287 11.141504 11.141504 0 0 0-8.130287-6.9258l-29.329257-5.119069a11.201729 11.201729 0 0 1-9.27455-11.08128v-56.851784a11.201729 11.201729 0 0 1 9.515447-11.322177l29.329257-5.11907a11.141504 11.141504 0 0 0 8.130287-6.865576c1.084038-2.77032 2.228301-5.480416 3.432788-8.130286a11.021056 11.021056 0 0 0-1.084038-10.900607l-17.103715-24.390861a11.201729 11.201729 0 0 1 1.204487-14.393619l40.049191-40.049191a11.201729 11.201729 0 0 1 14.393619-1.204487l24.390861 17.163939a11.201729 11.201729 0 0 0 10.840382 1.023814c2.710096-1.204487 5.420191-2.408974 8.130287-3.372564a11.141504 11.141504 0 0 0 6.9258-8.130287l5.179294-29.449705a11.201729 11.201729 0 0 1 11.08128-9.27455h56.851784a11.201729 11.201729 0 0 1 11.442626 9.756344l5.058845 29.329258a11.141504 11.141504 0 0 0 6.9258 8.130286c2.77032 1.084038 5.420191 2.228301 8.130287 3.432788a10.840383 10.840383 0 0 0 10.840383-1.084038l24.451085-17.103715a11.201729 11.201729 0 0 1 14.333394 1.204487l40.049191 40.049191a11.201729 11.201729 0 0 1 1.204487 14.393619l-17.103714 24.390861a11.021056 11.021056 0 0 0-1.084038 10.840383c1.264711 2.710096 2.408974 5.420191 3.432787 8.130287a11.141504 11.141504 0 0 0 8.130287 6.925799l29.329257 5.11907z m-214.157779 39.326499a36.556179 36.556179 0 1 0 73.112358 0 36.556179 36.556179 0 0 0-73.112358 0z m-288.474624 52.816753l-341.291377-197.294963V302.446673l341.291377-196.813168 341.291377 197.054065v282.331741a254.568317 254.568317 0 0 1 97.503218 24.390861V272.996967a46.553421 46.553421 0 0 0-23.246598-40.651435L492.307252 6.263332a46.553421 46.553421 0 0 0-46.553421 0L53.512656 232.706879A46.553421 46.553421 0 0 0 30.266058 273.298089v452.646195a46.553421 46.553421 0 0 0 23.246598 40.59121l392.241175 226.443547c14.393619 8.371184 32.159802 8.371184 46.553421 0l74.25662-43.120633a254.568317 254.568317 0 0 1-24.390861-98.76793l-73.112357 42.759287z"
          p-id="10065"></path>
</svg>