<?xml version="1.0" standalone="no"?><!DOCTYPE svg PUBLIC "-//W3C//DTD SVG 1.1//EN"
        "http://www.w3.org/Graphics/SVG/1.1/DTD/svg11.dtd">
<svg t="1599731411261" class="icon" viewBox="0 0 1025 1024" version="1.1" xmlns="http://www.w3.org/2000/svg" p-id="3247"
     xmlns:xlink="http://www.w3.org/1999/xlink" width="200.1953125" height="200">
    <defs>
        <style type="text/css"></style>
    </defs>
    <path d="M513 0c282.77 0 512 229.23 512 512s-229.23 512-512 512S1 794.77 1 512 230.23 0 513 0z m0 64C265.576 64 65 264.576 65 512c0 115.941 44.042 221.595 116.31 301.145 22.403-109.033 102.365-198.376 208.446-238.033l3.803-1.398-2.002-1.221C325.214 531.546 281 458.186 281 374.5 281 246.094 385.094 142 513.5 142S746 246.094 746 374.5c0 83.842-44.379 157.318-110.927 198.22l-2.012 1.223 3.804 1.405c105.77 39.776 185.46 128.986 207.816 237.803C916.953 733.606 961 627.947 961 512c0-247.424-200.576-448-448-448z"
          p-id="3248"></path>
</svg>