<?xml version="1.0" standalone="no"?><!DOCTYPE svg PUBLIC "-//W3C//DTD SVG 1.1//EN"
        "http://www.w3.org/Graphics/SVG/1.1/DTD/svg11.dtd">
<svg t="1600084055379" class="icon" viewBox="0 0 1025 1024" version="1.1" xmlns="http://www.w3.org/2000/svg" p-id="9991"
     xmlns:xlink="http://www.w3.org/1999/xlink" width="200.1953125" height="200">
    <defs>
        <style type="text/css"></style>
    </defs>
    <path d="M454.881649 0a56.860206 56.860206 0 0 1 56.860206 56.860206v113.720412h85.290309a28.430103 28.430103 0 0 1 28.430103 28.430103v227.440825c0 88.701921-45.147004 166.827845-113.663552 212.770891L511.741855 739.182679a56.860206 56.860206 0 0 1-56.860206 56.860206H398.021443v170.580618a56.860206 56.860206 0 0 1-113.720413 0v-170.580618H227.440824a56.860206 56.860206 0 0 1-56.860206-56.860206v-99.960242A255.643487 255.643487 0 0 1 56.860206 426.451546v-227.440825a28.430103 28.430103 0 0 1 28.430103-28.430103H170.580618V56.860206a56.860206 56.860206 0 1 1 113.720412 0v113.720412h113.720413V56.860206a56.860206 56.860206 0 0 1 56.860206-56.860206zM284.24417 682.322473H398.021443l0.11372-103.826736 50.378143-33.774963a141.866214 141.866214 0 0 0 62.887387-108.034391L511.741855 426.451546V284.30103H170.580618v142.150516c0 44.692122 20.640255 85.688331 55.09754 112.355767l8.18787 5.913461 50.435002 33.774963L284.24417 682.322473zM818.161505 568.602061c22.289201 0 42.076552 13.419009 49.127218 33.32008l11.826923 33.433802 3.013591 1.364645c6.084042 2.84301 11.940643 6.084042 17.626664 9.552514l2.615569 1.705806 36.788554-7.050665a53.448594 53.448594 0 0 1 52.53883 19.33247l2.72929 4.037075 22.11862 36.04937a46.454788 46.454788 0 0 1-6.084042 56.632765l-24.96163 26.439996 0.284301 3.070451 0.284301 9.552515c0 3.184172-0.11372 6.368343-0.284301 9.552515l-0.284301 3.013591 24.90477 26.439995c13.646449 14.499353 16.830621 35.082747 8.472171 52.42511l-2.331269 4.264516-22.11862 36.049371a53.107432 53.107432 0 0 1-55.26812 23.312684l-36.788554-7.050666-2.615569 1.762667c-5.686021 3.468473-11.542622 6.652644-17.626664 9.552514l-3.013591 1.364645-11.826923 33.433802a51.344766 51.344766 0 0 1-44.407821 33.09264l-4.719397 0.22744h-44.23724a51.685927 51.685927 0 0 1-49.127218-33.32008l-11.883783-33.433802-2.956731-1.307784a193.15412 193.15412 0 0 1-17.626664-9.609375l-2.67243-1.705806-36.731693 7.050665a53.448594 53.448594 0 0 1-52.53883-19.33247l-2.72929-4.037074-22.11862-36.049371a46.454788 46.454788 0 0 1 6.084042-56.632765l24.90477-26.496856-0.227441-3.013591-0.284301-9.552515c0-3.184172 0.11372-6.368343 0.284301-9.552515l0.227441-3.070451-24.84791-26.383135a46.511649 46.511649 0 0 1-8.472171-52.42511l2.331269-4.264516 22.11862-36.04937a53.107432 53.107432 0 0 1 55.26812-23.312685l36.731693 6.993805 2.72929-1.705806c5.686021-3.468473 11.542622-6.709504 17.626664-9.609375l2.899871-1.307784 11.883783-33.433802a51.344766 51.344766 0 0 1 44.407821-33.092639l4.719397-0.227441zM796.042885 739.182679a56.860206 56.860206 0 1 0 0 113.720412 56.860206 56.860206 0 0 0 0-113.720412z"
           p-id="9992"></path>
</svg>