<?xml version="1.0" standalone="no"?><!DOCTYPE svg PUBLIC "-//W3C//DTD SVG 1.1//EN"
        "http://www.w3.org/Graphics/SVG/1.1/DTD/svg11.dtd">
<svg t="1600084179877" class="icon" viewBox="0 0 1024 1024" version="1.1" xmlns="http://www.w3.org/2000/svg"
     p-id="10736" xmlns:xlink="http://www.w3.org/1999/xlink" width="200" height="200">
    <defs>
        <style type="text/css"></style>
    </defs>
    <path d="M741.517241 70.62069h141.24138c16.737103 0 35.310345 18.502621 35.310345 35.310344v105.931035H0V105.931034c0.070621-16.807724 18.608552-35.310345 35.310345-35.310344h141.241379v105.931034h141.241379V70.62069h282.482759v105.931034h141.241379V70.62069zM211.862069 0h70.62069v141.241379H211.862069V0z m423.724138 0h70.62069v141.241379h-70.62069V0zM918.068966 435.659034a351.161379 351.161379 0 0 0-70.62069-31.073103V317.793103h-141.241379v72.386207a351.408552 351.408552 0 0 0-70.62069 14.406621V317.793103h-141.241379v141.24138h35.275034A354.551172 354.551172 0 0 0 423.724138 587.422897V529.655172H282.482759v141.24138h112.993103c-4.625655 22.810483-7.062069 46.433103-7.062069 70.620689H282.482759v141.24138h135.309241a353.668414 353.668414 0 0 0 70.903172 105.224827l-448.794482-0.706207c-22.033655 0-39.90069-18.361379-39.90069-41.101241V247.172414h918.068966v188.48662zM70.62069 317.793103v141.24138h141.241379V317.793103H70.62069z m0 211.862069v141.24138h141.241379v-141.24138H70.62069z m0 211.862069v141.24138h141.241379v-141.24138H70.62069zM282.482759 317.793103v141.24138h141.241379V317.793103H282.482759z"
           p-id="10737"></path>
    <path d="M741.517241 1024a282.482759 282.482759 0 1 1 0-564.965517 282.482759 282.482759 0 0 1 0 564.965517z m66.206897-238.344828A110.486069 110.486069 0 0 0 918.068966 675.310345c0-9.639724-1.483034-19.314759-4.731587-30.472828a11.158069 11.158069 0 0 0-7.803586-7.627034 10.910897 10.910897 0 0 0-10.557793 2.824827l-57.732414 56.425931-42.231172-8.474482-8.403862-42.054621 58.368-57.061517a11.016828 11.016828 0 0 0-4.378483-18.432 109.638621 109.638621 0 0 0-32.873931-5.473104 110.486069 110.486069 0 0 0-110.344828 110.344828c0 7.13269 0.847448 14.336 2.612966 22.280827-12.429241 10.24-24.187586 19.067586-37.534897 29.025104-19.102897 14.230069-40.748138 30.366897-70.232276 55.296A78.494897 78.494897 0 0 0 564.965517 840.845241 77.329655 77.329655 0 0 0 642.189241 918.068966c22.528 0 43.99669-10.063448 58.756414-27.57738a1288.368552 1288.368552 0 0 0 56.143448-70.832552c9.780966-13.064828 18.361379-24.54069 28.318897-36.652137 7.309241 1.730207 14.830345 2.612966 22.316138 2.648275z"
           p-id="10738"></path>
</svg>