<?xml version="1.0" standalone="no"?><!DOCTYPE svg PUBLIC "-//W3C//DTD SVG 1.1//EN"
        "http://www.w3.org/Graphics/SVG/1.1/DTD/svg11.dtd">
<svg t="1600083892139" class="icon" viewBox="0 0 1024 1024" version="1.1" xmlns="http://www.w3.org/2000/svg" p-id="7414"
     xmlns:xlink="http://www.w3.org/1999/xlink" width="200" height="200">
    <defs>
        <style type="text/css"></style>
    </defs>
    <path d="M793.759938 652.319949a20.639998 20.639998 0 0 0-3.28-5.12l-95.999992-95.999992a19.199999 19.199999 0 0 0-27.199998 0 19.279998 19.279998 0 0 0 0 27.279998l62.079995 62.319995H546.239957a19.279998 19.279998 0 1 0 0 38.479997h184.639986l-63.999995 63.119995a19.519998 19.519998 0 0 0-5.76 13.599999 19.039999 19.039999 0 0 0 5.6 13.519999 18.799999 18.799999 0 0 0 27.039998 0l96.559992-95.039993a19.119999 19.119999 0 0 0 4.24-20.959998c-0.08-0.48-0.56-0.72-0.8-1.2z"
          p-id="7415"></path>
    <path d="M910.239929 0h-73.359994a56.799996 56.799996 0 0 1-56.879996 55.519996A56.799996 56.799996 0 0 1 723.119944 0H568.879956A56.879996 56.879996 0 0 1 511.99996 56.479996 56.879996 56.879996 0 0 1 455.119964 0H300.879976a56.799996 56.799996 0 0 1-56.879995 55.519996A56.799996 56.799996 0 0 1 187.119985 0h-73.359994A113.679991 113.679991 0 0 0 0 113.759991v796.479938A113.679991 113.679991 0 0 0 113.759991 1023.99992h796.479938A113.759991 113.759991 0 0 0 1023.99992 910.239929V113.759991A113.759991 113.759991 0 0 0 910.239929 0zM502.639961 224.559982A143.599989 143.599989 0 0 1 627.999951 438.319966a219.279983 219.279983 0 0 0-135.999989 73.119994 143.999989 143.999989 0 0 1 10.479999-286.879978zM237.759981 799.439938a11.759999 11.759999 0 0 1-11.519999-12V690.479946c0-74.159994 57.759995-134.23999 129.11999-134.239989h106.479992a219.359983 219.359983 0 0 0 29.839998 243.199981z m423.999967 39.439996A178.639986 178.639986 0 1 1 839.999934 660.239948a178.799986 178.799986 0 0 1-178.319986 178.639986z"
          p-id="7416"></path>
</svg>