<svg width="200" height="200" xmlns="http://www.w3.org/2000/svg" p-id="5585" version="1.1" class="icon" t="1600680350307">
    <defs>
        <style type="text/css"/>
    </defs>
    <g>
        <title>background</title>
        <rect fill="none" id="canvas_background" height="202" width="202" y="-1" x="-1"/>
    </g>
    <g>
        <title>Layer 1</title>
        <path stroke="null" id="svg_1" p-id="5586" d="m81.40063,184.56216c0,0.4268 0.04925,1.43281 0.12312,3.10951c0.07387,1.6767 0.0985,3.04854 0.04925,4.11553s-0.14775,2.31689 -0.36937,3.65825s-0.64025,2.34737 -1.2805,3.04854s-1.4775,1.00602 -2.561,1.00602l-40.16337,0c-9.97312,0 -18.49337,-4.38989 -25.58537,-13.1392s-10.61337,-19.29725 -10.61337,-31.64383l0,-109.50349c0,-12.34658 3.546,-22.89452 10.61337,-31.67431c7.092,-8.77979 15.58762,-13.1392 25.58537,-13.1392l40.21262,0c1.0835,0 2.04387,0.48777 2.83187,1.4633c0.788,0.97553 1.182,2.16446 1.182,3.50582c0,0.4268 0.04925,1.43281 0.12312,3.10951c0.07387,1.6767 0.0985,3.04854 0.04925,4.11553s-0.14775,2.31689 -0.36937,3.65825s-0.64025,2.34737 -1.2805,3.04854s-1.4775,1.00602 -2.561,1.00602l-40.188,0c-5.516,0 -10.244,2.43883 -14.184,7.28601c-3.94,4.87766 -5.88537,10.73085 -5.88537,17.55958l0,109.473c0,6.82873 1.94537,12.68192 5.88537,17.55958c3.94,4.87766 8.668,7.28601 14.184,7.28601l39.203,0c0.27087,0 0.73875,0.06097 1.45287,0.15243c0.71412,0.09146 1.182,0.27437 1.45287,0.45728c0.27087,0.18291 0.591,0.48777 1.00962,0.85359c0.41862,0.36582 0.71412,0.82311 0.86187,1.40233c0.14775,0.70116 0.22162,1.40233 0.22162,2.22543zm116.59937,-84.62742c0,2.68271 -0.788,5.03009 -2.38862,7.01164l-68.33437,84.62742c-1.576,1.95106 -3.49675,2.95708 -5.66375,2.95708s-4.06312,-0.97553 -5.66375,-2.95708c-1.576,-1.95106 -2.38862,-4.29844 -2.38862,-7.01164l0,-44.78302l-56.26812,0c-2.167,0 -4.06312,-0.97553 -5.66375,-2.95708c-1.576,-1.95106 -2.38862,-4.29844 -2.38862,-7.01164l0,-59.69038c0,-2.68271 0.788,-5.03009 2.38862,-7.01164s3.47212,-2.95708 5.66375,-2.95708l56.26812,0l0,-44.81351c0,-2.68271 0.788,-5.03009 2.38862,-7.01164c1.576,-1.95106 3.49675,-2.95708 5.66375,-2.95708s4.06312,0.97553 5.66375,2.95708l68.359,84.62742c1.576,1.98155 2.364,4.29844 2.364,6.98115z"/>
    </g>
</svg>