<?xml version="1.0" standalone="no"?><!DOCTYPE svg PUBLIC "-//W3C//DTD SVG 1.1//EN"
        "http://www.w3.org/Graphics/SVG/1.1/DTD/svg11.dtd">
<svg t="1600684795385" class="icon" viewBox="0 0 1024 1024" version="1.1" xmlns="http://www.w3.org/2000/svg" p-id="3305"
     xmlns:xlink="http://www.w3.org/1999/xlink" width="200" height="200">
    <defs>
        <style type="text/css"></style>
    </defs>
    <path d="M938.666667 0 512 0c-46.933333 0-85.333333 38.4-85.333333 85.333333 0 46.933333 38.4 85.333333 85.333333 85.333333l221.866667 0-217.6 217.6C465.066667 358.4 405.333333 341.333333 341.333333 341.333333c-187.733333 0-341.333333 153.6-341.333333 341.333333s153.6 341.333333 341.333333 341.333333 341.333333-153.6 341.333333-341.333333c0-64-17.066667-123.733333-46.933333-174.933333L853.333333 290.133333 853.333333 512c0 46.933333 38.4 85.333333 85.333333 85.333333s85.333333-38.4 85.333333-85.333333L1024 85.333333C1024 38.4 985.6 0 938.666667 0zM341.333333 853.333333c-93.866667 0-170.666667-76.8-170.666667-170.666667s76.8-170.666667 170.666667-170.666667 170.666667 76.8 170.666667 170.666667S435.2 853.333333 341.333333 853.333333z"
          p-id="3306"></path>
</svg>