<svg width="200" height="200" xmlns="http://www.w3.org/2000/svg" p-id="3023" version="1.1" class="icon" t="1592300505289">
    <defs>
        <style type="text/css"/>
    </defs>
    <g>
        <title>background</title>
        <rect fill="none" id="canvas_background" height="202" width="202" y="-1" x="-1"/>
    </g>
    <g>
        <title>Layer 1</title>
        <path stroke="null" id="svg_1" p-id="3024" d="m37.72618,118.44833l43.22552,0c7.38228,0 12.3671,5.0335 12.3671,12.4639l0,55.79991c0,7.4304 -7.38228,12.4639 -14.76456,12.4639l-53.19516,0c-7.38228,0 -12.15347,-5.0335 -12.15347,-12.4639l0,-55.79991c0,-7.4304 4.98482,-12.4639 12.3671,-12.4639l12.15347,0zm92.52777,0l55.37898,0c7.38228,0 12.3671,6.35179 12.3671,13.78219l0,53.61873c0,7.4304 -5.8631,13.35075 -13.24538,13.35075l-53.19516,0c-7.38228,0 -13.67265,-5.0335 -13.67265,-12.4639l0,-55.82388c0,-7.4304 6.29037,-12.24818 13.67265,-12.24818l-1.30555,-0.21572zm0,-105.48772l55.37898,0c7.38228,0 12.3671,4.38633 12.3671,11.81673l0,56.25532c0,7.4304 -4.98482,12.4639 -12.3671,12.4639l-55.37898,0c-7.38228,0 -12.3671,-5.0335 -12.3671,-12.4639l0,-55.82388c-0.02374,-7.4304 4.98482,-12.24818 12.3671,-12.24818zm-125.52253,29.31413l37.78969,-38.06282c5.22219,-5.24922 13.67265,-5.24922 18.89484,0l37.36242,38.08679c5.22219,5.24922 5.22219,13.78219 0,19.03141l-37.57605,37.87107c-5.22219,5.24922 -13.67265,5.24922 -18.89484,0l-37.57605,-38.08679c-5.00856,-5.27319 -5.00856,-13.80616 0,-18.83966z"/>
    </g>
</svg>