<svg width="200" height="200" xmlns="http://www.w3.org/2000/svg" p-id="2712" version="1.1" class="icon" t="1600083716081">
    <defs>
        <style type="text/css"/>
    </defs>
    <g>
        <title>background</title>
        <rect fill="none" id="canvas_background" height="202" width="202" y="-1" x="-1"/>
    </g>
    <g>
        <title>Layer 1</title>
        <path stroke="null" id="svg_1" p-id="2713" d="m194.83642,148.17867c-1.80286,-2.87933 -8.28876,-4.33448 -15.76403,-4.45832c0.17589,-13.59169 2.24258,-40.74411 -1.60498,-45.45011c-2.19861,-2.69357 -36.71677,-6.37788 -69.95973,-3.77719l0.96739,-19.96957c10.1136,-0.24768 18.86406,-1.57899 20.90877,-4.45832c5.0568,-7.12093 5.91426,-53.53082 0,-63.03571c-5.91426,-9.50489 -50.67793,-7.12093 -57.44965,4.76793c-6.74973,11.88886 -5.91426,53.53082 0,58.26779c2.33053,1.88859 10.99304,3.3747 20.93076,4.08679l0.7915,21.48663c-35.99123,3.2199 -70.81719,7.83302 -72.18033,11.1458c-2.02272,4.95369 -0.17589,26.25456 0.96739,37.52421c-8.17882,1.11458 -15.63211,3.65335 -17.83072,7.52342c-5.16673,9.07145 -4.50715,40.92987 0,44.55226c4.50715,3.65335 40.03667,5.44906 43.90622,0c3.86955,-5.44906 4.52913,-40.92987 0,-48.2056c-1.86882,-3.00317 -8.83841,-4.45832 -16.73141,-4.48928c-0.72554,-8.11167 -1.71491,-23.68483 0.83547,-27.33818c1.67094,-2.38396 31.00038,-5.29426 61.51708,-6.93517l1.29718,35.14024c-7.54123,1.20746 -14.15904,3.65335 -16.22573,7.27573c-5.16673,9.10241 -4.52913,40.92987 0,44.55226c4.52913,3.65335 40.03667,5.44906 43.90622,0c3.86955,-5.44906 4.52913,-40.92987 0,-48.2056c-1.97875,-3.18894 -9.62991,-4.61312 -18.02859,-4.48928l1.69293,-34.89256c28.93369,-1.20746 59.05463,-1.26938 60.48373,1.85763c2.22059,4.82985 3.3199,22.41545 2.55039,33.96374c-8.11287,1.11458 -16.7534,3.3747 -18.95201,7.21381c-5.16673,9.10241 -4.52913,40.92987 0,44.55226c4.52913,3.65335 40.03667,5.44906 43.90622,0c3.93551,-5.44906 4.57311,-40.92987 0.06596,-48.2056z"/>
    </g>
</svg>