<?xml version="1.0" standalone="no"?><!DOCTYPE svg PUBLIC "-//W3C//DTD SVG 1.1//EN"
        "http://www.w3.org/Graphics/SVG/1.1/DTD/svg11.dtd">
<svg t="1599558996817" class="icon" viewBox="0 0 1024 1024" version="1.1" xmlns="http://www.w3.org/2000/svg" p-id="777"
     xmlns:xlink="http://www.w3.org/1999/xlink" width="200" height="200">
    <defs>
        <style type="text/css"></style>
    </defs>
    <path d="M540.697198 431.157895c-3.899619-16.698369-9.499072-33.096768-16.498389-48.795235l19.298115-19.298115L600.691339 420.258959c18.498194 18.498194 43.095791 28.697198 69.293233 28.697198 26.197442 0 50.79504-10.199004 69.293233-28.697198 18.498194-18.498194 28.697198-43.095791 28.697198-69.293233 0-26.197442-10.199004-50.79504-28.697198-69.293233l-57.194415-57.194415 57.194415-57.194415c38.19627-38.19627 38.19627-100.390196 0-138.586466-18.498194-18.498194-43.095791-28.697198-69.293233-28.697198s-50.79504 10.199004-69.293233 28.697198l-214.979006 214.979006c-34.996582-15.598477-73.092862-23.697686-111.689093-23.697686-73.192852 0-141.986134 28.497217-193.681086 80.292159S0.049995 420.8589 0.049995 494.051753c0 73.192852 28.497217 141.986134 80.292159 193.681086s120.588224 80.292159 193.681086 80.292159c48.495264 0 96.090616-12.79875 137.786544-37.096377 15.298506-8.899131 20.398008-28.497217 11.498877-43.795723-8.899131-15.298506-28.497217-20.398008-43.795723-11.498877-31.896885 18.598184-68.393321 28.397227-105.589689 28.397227-115.788693 0-209.979494-94.190802-209.979494-209.979494 0-115.788693 94.190802-209.979494 209.979494-209.979494 35.896494 0 71.293038 9.199102 102.390001 26.597403l21.09794 11.798848L645.986915 73.992774c6.399375-6.399375 14.998535-9.999024 23.997656-9.999024s17.598281 3.499658 23.997656 9.999024c13.298701 13.298701 13.298701 34.796602 0 48.095303L591.592227 224.478078 693.982228 326.868079c6.399375 6.399375 9.999024 14.998535 9.999024 23.997656s-3.499658 17.598281-9.999024 23.997656c-6.399375 6.399375-14.998535 9.999024-23.997656 9.999024-9.099111 0-17.598281-3.499658-23.997656-9.999024L543.496924 272.573382l-97.990431 97.990431 11.798848 21.09794c9.499072 16.99834 16.598379 35.196563 20.997949 54.094717 3.999609 17.19832 21.29792 27.897276 38.496241 23.797676C534.097842 465.554536 544.796797 448.356215 540.697198 431.157895z"
          p-id="778" ></path>
    <path d="M274.02324 352.065619c-37.896299 0-73.592813 14.798555-100.390196 41.595938S132.037106 456.055463 132.037106 494.051753c0 37.896299 14.798555 73.592813 41.595938 100.390196 26.797383 26.797383 62.493897 41.595938 100.390196 41.595938s73.592813-14.798555 100.390196-41.595938c26.797383-26.797383 41.595938-62.493897 41.595938-100.390196 0-37.896299-14.798555-73.592813-41.595938-100.390196S311.919539 352.065619 274.02324 352.065619zM329.21785 549.146372c-14.698565 14.698565-34.296651 22.797774-55.19461 22.797774s-40.396055-8.099209-55.19461-22.797774S196.030856 514.849722 196.030856 494.051753c0-20.797969 8.099209-40.396055 22.797774-55.19461s34.296651-22.797774 55.19461-22.797774 40.396055 8.099209 55.19461 22.797774S352.015623 473.153794 352.015623 494.051753C352.015623 514.849722 343.916414 534.447808 329.21785 549.146372z"
          p-id="779" ></path>
    <path d="M948.957328 587.042672c-48.395274-48.395274-112.589005-74.992676-180.982326-74.992676-45.995508 0-91.091104 12.398789-130.487257 35.696514-23.097744 13.698662-43.795723 30.896983-61.493995 50.99502l0-22.697783c0-17.698272-14.298604-31.996875-31.996875-31.996875s-31.996875 14.298604-31.996875 31.996875l0 95.990626c0 17.698272 14.298604 31.996875 31.996875 31.996875l95.990626 0c17.698272 0 31.996875-14.298604 31.996875-31.996875s-14.298604-31.996875-31.996875-31.996875l-15.098526 0c36.096475-40.196075 87.991407-63.993751 143.086027-63.993751 105.889659 0 191.981252 86.091593 191.981252 191.981252s-86.091593 191.981252-191.981252 191.981252c-75.492628 0-144.185919-44.495655-175.182892-113.288937-7.199297-16.098428-26.197442-23.297725-42.29587-16.098428-16.098428 7.299287-23.297725 26.197442-16.098428 42.29587 41.295967 91.791036 132.987013 151.085246 233.57719 151.085246 68.393321 0 132.687042-26.597403 180.982326-74.992676 48.395274-48.395274 74.992676-112.589005 74.992676-180.982326S997.352602 635.337955 948.957328 587.042672z"
          p-id="780" ></path>
</svg>