<?xml version="1.0" standalone="no"?><!DOCTYPE svg PUBLIC "-//W3C//DTD SVG 1.1//EN"
        "http://www.w3.org/Graphics/SVG/1.1/DTD/svg11.dtd">
<svg t="1584674333265" class="icon" viewBox="0 0 1024 1024" version="1.1" xmlns="http://www.w3.org/2000/svg" p-id="4472"
     xmlns:xlink="http://www.w3.org/1999/xlink" width="200" height="200">
    <defs>
        <style type="text/css"></style>
    </defs>
    <path d="M260.608 232.727273l82.711273-124.090182A34.885818 34.885818 0 0 1 372.363636 93.090909h279.272728c11.682909 0 22.574545 5.818182 29.044363 15.546182L763.415273 232.727273h110.056727A104.261818 104.261818 0 0 1 977.454545 336.686545v490.24A104.285091 104.285091 0 0 1 873.472 930.909091H150.528A104.285091 104.285091 0 0 1 46.545455 826.926545V336.686545A104.261818 104.261818 0 0 1 150.528 232.727273h110.056727z m83.898182 0h334.987636l-46.545454-69.818182H391.074909l-46.545454 69.818182zM512 779.636364c109.079273 0 197.818182-88.738909 197.818182-197.818182 0-109.079273-88.738909-197.818182-197.818182-197.818182-109.079273 0-197.818182 88.738909-197.818182 197.818182 0 109.079273 88.738909 197.818182 197.818182 197.818182z m0-325.818182c70.562909 0 128 57.437091 128 128s-57.437091 128-128 128a128.162909 128.162909 0 0 1-128-128c0-70.562909 57.437091-128 128-128z"
           p-id="4473"></path>
</svg>
