<?xml version="1.0" standalone="no"?><!DOCTYPE svg PUBLIC "-//W3C//DTD SVG 1.1//EN" "http://www.w3.org/Graphics/SVG/1.1/DTD/svg11.dtd"><svg t="1584684935754" class="icon" viewBox="0 0 1024 1024" version="1.1" xmlns="http://www.w3.org/2000/svg" p-id="2635" xmlns:xlink="http://www.w3.org/1999/xlink" width="200" height="200"><defs><style type="text/css"></style></defs><path d="M511.674077 66.707284c-246.52265 0-446.347744 199.835328-446.347744 446.347744s199.825095 446.356954 446.347744 446.356954c246.50423 0 446.348768-199.844537 446.348768-446.356954S758.177284 66.707284 511.674077 66.707284zM744.967424 667.159826c21.8701 21.8701 21.8701 57.310264 0 79.199807-21.8701 21.851681-57.30924 21.851681-79.198783-0.019443L511.674077 592.264045 357.56007 746.359632c-21.8701 21.8701-57.30924 21.851681-79.17934-0.019443s-21.8701-57.290821 0-79.160921L432.493713 513.065262 278.379707 358.950232c-21.8701-21.86089-21.8701-57.328683 0-79.18855 21.8701-21.87931 57.30924-21.87931 79.17934 0l154.114007 154.104797 154.095587-154.104797c21.889543-21.87931 57.32766-21.87931 79.198783-0.010233 21.8701 21.8701 21.8701 57.348126 0 79.207993L590.89128 513.065262 744.967424 667.159826z" p-id="2636"></path></svg>