<svg width="200" height="200" xmlns="http://www.w3.org/2000/svg" class="icon">
    <defs>
        <style type="text/css"/>
    </defs>
    <g>
        <title>background</title>
        <rect x="-1" y="-1" width="202" height="202" id="canvas_background" fill="none"/>
    </g>
    <g>
        <title>Layer 1</title>
        <path stroke="null" d="m100.174458,-0.292713c-54.594879,0 -98.848123,44.928507 -98.848123,100.351314s44.253244,100.353385 98.848123,100.353385c54.590801,0 98.84835,-44.930578 98.84835,-100.353385s-44.257777,-100.351314 -98.84835,-100.351314zm51.665119,134.998334c4.84335,4.917003 4.84335,12.884932 0,17.806306c-4.84335,4.912862 -12.691698,4.912862 -17.539354,-0.004371l-34.125765,-34.640578l-34.130072,34.644948c-4.84335,4.917003 -12.691698,4.912862 -17.535049,-0.004371s-4.84335,-12.880561 0,-17.797564l34.129845,-34.64909l-34.130071,-34.64932c-4.84335,-4.914933 -4.84335,-12.889073 0,-17.803775c4.84335,-4.919074 12.691698,-4.919074 17.535049,0l34.130072,34.647019l34.125992,-34.647019c4.847656,-4.919074 12.695777,-4.919074 17.539354,-0.002301c4.84335,4.917003 4.84335,12.893444 0,17.808147l-34.121687,34.647249l34.121687,34.644718l-0.000001,0.000001z" id="svg_1"/>
    </g>
</svg>