<?xml version="1.0" standalone="no"?><!DOCTYPE svg PUBLIC "-//W3C//DTD SVG 1.1//EN" "http://www.w3.org/Graphics/SVG/1.1/DTD/svg11.dtd"><svg t="1602576581167" class="icon" viewBox="0 0 1024 1024" version="1.1" xmlns="http://www.w3.org/2000/svg" p-id="979" xmlns:xlink="http://www.w3.org/1999/xlink" width="200" height="200"><defs><style type="text/css"></style></defs><path d="M846.744 508.143l116.24 68.776c15.98 9.456 36.597 4.16 46.05-11.827 0.118-0.202 0.235-0.404 0.35-0.608 9.365-16.623 3.725-37.686-12.692-47.4l-88.868-52.581c48.311-40.197 86.99-88.06 112.716-141.724 8.208-17.124 1.317-37.826-15.392-46.238-16.71-8.413-36.91-1.35-45.118 15.774-67.269 140.327-246.273 237.623-450.97 237.623-199.181 0-374.448-92.132-445.693-227.14-8.856-16.782-29.31-23.03-45.686-13.953-16.376 9.076-22.471 30.038-13.615 46.82 25.783 48.858 62.406 92.564 107.23 129.667L23.831 517.085c-16.417 9.713-22.057 30.776-12.692 47.4 9.116 16.18 29.619 21.905 45.793 12.785 0.204-0.115 0.407-0.231 0.608-0.35l115.013-68.052c47.967 29.21 102.123 52.113 160.314 67.526l-52.082 92.448c-9.253 16.424-3.68 37.235 12.54 46.833 15.79 9.342 36.16 4.11 45.498-11.687 0.118-0.198 0.233-0.399 0.347-0.6l63.36-112.469c34.613 5.335 70.255 8.11 106.53 8.11 36.286 0 71.926-2.776 106.53-8.11l63.361 112.47c9.007 15.987 29.264 21.643 45.245 12.632 0.202-0.113 0.402-0.229 0.6-0.346 16.22-9.598 21.793-30.409 12.54-46.833l-52.083-92.451c58.69-15.548 113.253-38.709 161.492-68.248z" fill="#222222" p-id="980"></path></svg>