<?xml version="1.0" standalone="no"?><!DOCTYPE svg PUBLIC "-//W3C//DTD SVG 1.1//EN" "http://www.w3.org/Graphics/SVG/1.1/DTD/svg11.dtd"><svg t="1602576663176" class="icon" viewBox="0 0 1024 1024" version="1.1" xmlns="http://www.w3.org/2000/svg" p-id="1331" xmlns:xlink="http://www.w3.org/1999/xlink" width="200" height="200"><defs><style type="text/css"></style></defs><path d="M518.826667 763.733333c-98.190222 0-177.777778-79.587556-177.777778-177.777777s79.587556-177.777778 177.777778-177.777778 177.777778 79.587556 177.777777 177.777778-79.587556 177.777778-177.777777 177.777777z m0-99.555555a78.222222 78.222222 0 1 0 0-156.444445 78.222222 78.222222 0 0 0 0 156.444445z" p-id="1332"></path><path d="M522.467556 814.520889c124.529778 0 249.287111-73.244444 374.357333-224.199111-109.155556-151.054222-233.244444-224.241778-374.357333-224.241778-141.255111 0-269.909333 73.329778-387.569778 224.284444 133.575111 150.798222 262.869333 224.156444 387.569778 224.156445z m373.063111-380.344889c36.750222 37.432889 71.68 81.038222 104.803555 130.744889l19.911111 29.880889-22.087111 28.330666C848.284444 815.317333 689.706667 914.062222 522.467556 914.062222c-166.684444 0-329.742222-98.176-489.571556-289.664L8.149333 594.773333l22.570667-31.331555c44.743111-62.122667 91.818667-114.673778 141.169778-157.482667l-84.337778-89.827555a35.555556 35.555556 0 1 1 51.84-48.668445l88.789333 94.577778c51.342222-35.726222 104.96-61.525333 160.768-77.226667l-43.079111-101.674666a35.555556 35.555556 0 1 1 65.479111-27.733334l48.739556 115.000889a499.527111 499.527111 0 0 1 62.378667-3.868444c36.508444 0 72.007111 3.882667 106.481777 11.619555l56.945778-125.297778a35.555556 35.555556 0 0 1 64.739556 29.44l-53.105778 116.821334c51.043556 19.911111 99.612444 48.938667 145.621333 86.897778l103.936-103.950223a35.555556 35.555556 0 0 1 50.289778 50.289778l-101.831111 101.831111z" p-id="1333"></path></svg>