<svg width="200" height="200" xmlns="http://www.w3.org/2000/svg" class="icon">
    <path
          d="m47.509202,64.000001l17.584221,-23.993999a7.416643,6.7455 0 0 1 6.174765,-3.006l59.372724,0c2.483759,0 4.799296,1.125 6.174765,3.006l17.589169,23.993999l23.397802,0a22.165818,20.16 0 0 1 22.106446,20.101501l0,94.792497a22.170765,20.164499 0 0 1 -22.106446,20.105998l-153.696194,0a22.170765,20.164499 0 0 1 -22.106443,-20.105998l0,-94.792497a22.165818,20.16 0 0 1 22.106443,-20.101501l23.397802,0l0.004947,0zm17.831609,0l71.217585,0l-9.895455,-13.499999l-51.41678,0l-9.895455,13.499999l-0.009894,0zm35.603843,105.749996c23.189998,0 42.055682,-17.1585 42.055682,-38.249998c0,-21.091499 -18.865684,-38.249998 -42.055682,-38.249998c-23.189996,0 -42.05568,17.1585 -42.05568,38.249998c0,21.091501 18.865684,38.249998 42.05568,38.249998zm-35.603843,-168.749993c15.001509,0 27.212499,11.105999 27.212499,24.749999s-12.21099,24.749999 -27.212499,24.749999a27.247133,24.781499 0 0 1 -27.212499,-24.749999c0,-13.644 12.21099,-24.749999 27.212499,-24.749999z"/>
</svg>