<?xml version="1.0" standalone="no"?><!DOCTYPE svg PUBLIC "-//W3C//DTD SVG 1.1//EN"
        "http://www.w3.org/Graphics/SVG/1.1/DTD/svg11.dtd">
<svg t="1601263552296" class="icon" viewBox="0 0 1024 1024" version="1.1" xmlns="http://www.w3.org/2000/svg" p-id="3295"
     xmlns:xlink="http://www.w3.org/1999/xlink" width="200" height="200">
    <defs>
        <style type="text/css"></style>
    </defs>
    <path d="M465.454545 558.545455v465.454545H0V558.545455h465.454545z m232.727273 325.818181v139.636364h-139.636363v-139.636364h139.636363z m93.090909 139.636364v-93.090909h93.090909v-139.636364h139.636364v232.727273h-232.727273z m-418.909091-372.363636H93.090909v279.272727h279.272727v-279.272727z m418.909091 46.545454v186.181818h-93.090909v-186.181818h93.090909zM279.272727 744.727273v93.090909H186.181818v-93.090909h93.090909z m418.909091-186.181818v139.636363h-139.636363v-139.636363h139.636363z m325.818182 0v139.636363h-139.636364v-139.636363h139.636364zM465.454545 0v465.454545H0V0h465.454545z m558.545455 0v465.454545H558.545455V0h465.454545zM372.363636 93.090909H93.090909v279.272727h279.272727V93.090909z m558.545455 0h-279.272727v279.272727h279.272727V93.090909zM279.272727 186.181818v93.090909H186.181818V186.181818h93.090909z m558.545455 0v93.090909h-93.090909V186.181818h93.090909z"
           p-id="3296"></path>
</svg>